{
  "asset": {
    "version": "2.0",
    "generator": "THREE.GLTFExporter"
  },
  "scenes": [
    {
      "nodes": [
        0
      ]
    }
  ],
  "scene": 0,
  "nodes": [
    {
      "children": [
        35
      ],
      "matrix": [
        0.01,
        0,
        0,
        0,
        0,
        0.01,
        0,
        0,
        0,
        0,
        0.01,
        0,
        0,
        0,
        0,
        1
      ]
    },
    {
      "name": "download.png",
      "mesh": 0
    },
    {
      "matrix": [
        1,
        0,
        0,
        0,
        0,
        1,
        0,
        0,
        0,
        0,
        1,
        0,
        -658.5561781920333,
        -562.5014502833947,
        223.0694920113092,
        1
      ],
      "name": "Point Light",
      "extensions": {
        "KHR_lights_punctual": {
          "light": 0
        }
      }
    },
    {
      "matrix": [
        0.19442424697400817,
        -0.4612909995085526,
        -0.8656845995863565,
        0,
        0.9214949553843673,
        0.3883903284083719,
        0,
        0,
        0.3362235259314149,
        -0.7977239914727634,
        0.5005898261441293,
        0,
        0,
        0,
        0,
        1
      ],
      "name": "Directional Light",
      "extensions": {
        "KHR_lights_punctual": {
          "light": 1
        }
      }
    },
    {
      "matrix": [
        0.7361409542015985,
        2.573898832264332e-8,
        0.6768282614867375,
        0,
        -0.05002036343836991,
        0.997265357121735,
        0.054403774927404586,
        0,
        -0.6749773765013561,
        -0.07390404241215529,
        0.7341278728712655,
        0,
        -1227.9502276654948,
        -75.47930333192457,
        1266.5250168567272,
        1
      ],
      "name": "Personal Camera",
      "camera": 0
    },
    {
      "matrix": [
        1,
        0,
        0,
        0,
        0,
        1,
        0,
        0,
        0,
        0,
        1,
        0,
        0,
        1,
        0,
        1
      ],
      "name": "Default Ambient Light"
    },
    {
      "matrix": [
        1,
        0,
        0,
        0,
        0,
        1,
        0,
        0,
        0,
        0,
        1,
        0,
        320,
        0,
        0,
        1
      ],
      "mesh": 1
    },
    {
      "matrix": [
        0.9749279121818236,
        0,
        0.2225209339563144,
        0,
        0,
        1,
        0,
        0,
        -0.2225209339563144,
        0,
        0.9749279121818236,
        0,
        311.9769318981836,
        0,
        71.2066988660206,
        1
      ],
      "mesh": 1
    },
    {
      "matrix": [
        0.9009688679024191,
        0,
        0.4338837391175581,
        0,
        0,
        1,
        0,
        0,
        -0.4338837391175581,
        0,
        0.9009688679024191,
        0,
        288.31003772877415,
        0,
        138.8427965176186,
        1
      ],
      "mesh": 1
    },
    {
      "matrix": [
        0.7818314824680298,
        0,
        0.6234898018587336,
        0,
        0,
        1,
        0,
        0,
        -0.6234898018587336,
        0,
        0.7818314824680298,
        0,
        250.18607438976954,
        0,
        199.51673659479474,
        1
      ],
      "mesh": 1
    },
    {
      "matrix": [
        0.6234898018587336,
        0,
        0.7818314824680298,
        0,
        0,
        1,
        0,
        0,
        -0.7818314824680298,
        0,
        0.6234898018587336,
        0,
        199.51673659479474,
        0,
        250.18607438976954,
        1
      ],
      "mesh": 1
    },
    {
      "matrix": [
        0.43388373911755806,
        0,
        0.9009688679024191,
        0,
        0,
        1,
        0,
        0,
        -0.9009688679024191,
        0,
        0.43388373911755806,
        0,
        138.84279651761858,
        0,
        288.31003772877415,
        1
      ],
      "mesh": 1
    },
    {
      "matrix": [
        0.22252093395631456,
        0,
        0.9749279121818235,
        0,
        0,
        1,
        0,
        0,
        -0.9749279121818235,
        0,
        0.22252093395631456,
        0,
        71.20669886602062,
        0,
        311.9769318981835,
        1
      ],
      "mesh": 1
    },
    {
      "matrix": [
        2.220446049250313e-16,
        0,
        1,
        0,
        0,
        1,
        0,
        0,
        -1,
        0,
        2.220446049250313e-16,
        0,
        7.105427357601002e-14,
        0,
        320,
        1
      ],
      "mesh": 1
    },
    {
      "matrix": [
        -0.22252093395631434,
        0,
        0.9749279121818237,
        0,
        0,
        1,
        0,
        0,
        -0.9749279121818237,
        0,
        -0.22252093395631434,
        0,
        -71.20669886602057,
        0,
        311.9769318981836,
        1
      ],
      "mesh": 1
    },
    {
      "matrix": [
        -0.43388373911755806,
        0,
        0.9009688679024191,
        0,
        0,
        1,
        0,
        0,
        -0.9009688679024191,
        0,
        -0.43388373911755806,
        0,
        -138.84279651761858,
        0,
        288.31003772877415,
        1
      ],
      "mesh": 1
    },
    {
      "matrix": [
        -0.6234898018587336,
        0,
        0.7818314824680299,
        0,
        0,
        1,
        0,
        0,
        -0.7818314824680299,
        0,
        -0.6234898018587336,
        0,
        -199.5167365947947,
        0,
        250.18607438976957,
        1
      ],
      "mesh": 1
    },
    {
      "matrix": [
        -0.7818314824680299,
        0,
        0.6234898018587337,
        0,
        0,
        1,
        0,
        0,
        -0.6234898018587337,
        0,
        -0.7818314824680299,
        0,
        -250.18607438976954,
        0,
        199.5167365947948,
        1
      ],
      "mesh": 1
    },
    {
      "matrix": [
        -0.9009688679024193,
        0,
        0.43388373911755823,
        0,
        0,
        1,
        0,
        0,
        -0.43388373911755823,
        0,
        -0.9009688679024193,
        0,
        -288.31003772877415,
        0,
        138.84279651761864,
        1
      ],
      "mesh": 1
    },
    {
      "matrix": [
        -0.9749279121818237,
        0,
        0.2225209339563145,
        0,
        0,
        1,
        0,
        0,
        -0.2225209339563145,
        0,
        -0.9749279121818237,
        0,
        -311.9769318981836,
        0,
        71.20669886602064,
        1
      ],
      "mesh": 1
    },
    {
      "matrix": [
        -1,
        0,
        1.2246467991473532e-16,
        0,
        0,
        1,
        0,
        0,
        -1.2246467991473532e-16,
        0,
        -1,
        0,
        -320,
        0,
        3.9188697572715304e-14,
        1
      ],
      "mesh": 1
    },
    {
      "matrix": [
        -0.9749279121818237,
        0,
        -0.22252093395631428,
        0,
        0,
        1,
        0,
        0,
        0.22252093395631428,
        0,
        -0.9749279121818237,
        0,
        -311.9769318981836,
        0,
        -71.20669886602057,
        1
      ],
      "mesh": 1
    },
    {
      "matrix": [
        -0.9009688679024193,
        0,
        -0.433883739117558,
        0,
        0,
        1,
        0,
        0,
        0.433883739117558,
        0,
        -0.9009688679024193,
        0,
        -288.31003772877415,
        0,
        -138.84279651761855,
        1
      ],
      "mesh": 1
    },
    {
      "matrix": [
        -0.7818314824680299,
        0,
        -0.6234898018587334,
        0,
        0,
        1,
        0,
        0,
        0.6234898018587334,
        0,
        -0.7818314824680299,
        0,
        -250.18607438976957,
        0,
        -199.51673659479468,
        1
      ],
      "mesh": 1
    },
    {
      "matrix": [
        -0.6234898018587336,
        0,
        -0.7818314824680297,
        0,
        0,
        1,
        0,
        0,
        0.7818314824680297,
        0,
        -0.6234898018587336,
        0,
        -199.51673659479474,
        0,
        -250.1860743897695,
        1
      ],
      "mesh": 1
    },
    {
      "matrix": [
        -0.4338837391175583,
        0,
        -0.900968867902419,
        0,
        0,
        1,
        0,
        0,
        0.900968867902419,
        0,
        -0.4338837391175583,
        0,
        -138.84279651761864,
        0,
        -288.3100377287741,
        1
      ],
      "mesh": 1
    },
    {
      "matrix": [
        -0.22252093395631478,
        0,
        -0.9749279121818236,
        0,
        0,
        1,
        0,
        0,
        0.9749279121818236,
        0,
        -0.22252093395631478,
        0,
        -71.2066988660207,
        0,
        -311.9769318981836,
        1
      ],
      "mesh": 1
    },
    {
      "matrix": [
        -2.220446049250313e-16,
        0,
        -1,
        0,
        0,
        1,
        0,
        0,
        1,
        0,
        -2.220446049250313e-16,
        0,
        -7.105427357601002e-14,
        0,
        -320,
        1
      ],
      "mesh": 1
    },
    {
      "matrix": [
        0.22252093395631423,
        0,
        -0.9749279121818237,
        0,
        0,
        1,
        0,
        0,
        0.9749279121818237,
        0,
        0.22252093395631423,
        0,
        71.20669886602057,
        0,
        -311.9769318981836,
        1
      ],
      "mesh": 1
    },
    {
      "matrix": [
        0.43388373911755784,
        0,
        -0.9009688679024193,
        0,
        0,
        1,
        0,
        0,
        0.9009688679024193,
        0,
        0.43388373911755784,
        0,
        138.84279651761855,
        0,
        -288.31003772877415,
        1
      ],
      "mesh": 1
    },
    {
      "matrix": [
        0.6234898018587334,
        0,
        -0.7818314824680299,
        0,
        0,
        1,
        0,
        0,
        0.7818314824680299,
        0,
        0.6234898018587334,
        0,
        199.51673659479465,
        0,
        -250.18607438976957,
        1
      ],
      "mesh": 1
    },
    {
      "matrix": [
        0.7818314824680297,
        0,
        -0.6234898018587338,
        0,
        0,
        1,
        0,
        0,
        0.6234898018587338,
        0,
        0.7818314824680297,
        0,
        250.18607438976954,
        0,
        -199.51673659479482,
        1
      ],
      "mesh": 1
    },
    {
      "matrix": [
        0.900968867902419,
        0,
        -0.43388373911755834,
        0,
        0,
        1,
        0,
        0,
        0.43388373911755834,
        0,
        0.900968867902419,
        0,
        288.31003772877415,
        0,
        -138.84279651761867,
        1
      ],
      "mesh": 1
    },
    {
      "matrix": [
        0.9749279121818235,
        0,
        -0.22252093395631464,
        0,
        0,
        1,
        0,
        0,
        0.22252093395631464,
        0,
        0.9749279121818235,
        0,
        311.9769318981836,
        0,
        -71.20669886602069,
        1
      ],
      "mesh": 1
    },
    {
      "matrix": [
        1,
        0,
        0,
        0,
        0,
        2.220446049250313e-16,
        1,
        0,
        0,
        -1,
        2.220446049250313e-16,
        0,
        0,
        0,
        0,
        1
      ],
      "children": [
        6,
        7,
        8,
        9,
        10,
        11,
        12,
        13,
        14,
        15,
        16,
        17,
        18,
        19,
        20,
        21,
        22,
        23,
        24,
        25,
        26,
        27,
        28,
        29,
        30,
        31,
        32,
        33
      ]
    },
    {
      "name": "Scene 1",
      "children": [
        1,
        2,
        3,
        4,
        5,
        34
      ]
    }
  ],
  "bufferViews": [
    {
      "buffer": 0,
      "byteOffset": 0,
      "byteLength": 48,
      "target": 34962,
      "byteStride": 12
    },
    {
      "buffer": 0,
      "byteOffset": 48,
      "byteLength": 48,
      "target": 34962,
      "byteStride": 12
    },
    {
      "buffer": 0,
      "byteOffset": 96,
      "byteLength": 32,
      "target": 34962,
      "byteStride": 8
    },
    {
      "buffer": 0,
      "byteOffset": 128,
      "byteLength": 24,
      "target": 34963
    },
    {
      "buffer": 0,
      "byteOffset": 152,
      "byteLength": 11856,
      "target": 34962,
      "byteStride": 12
    },
    {
      "buffer": 0,
      "byteOffset": 12008,
      "byteLength": 11856,
      "target": 34962,
      "byteStride": 12
    },
    {
      "buffer": 0,
      "byteOffset": 23864,
      "byteLength": 7904,
      "target": 34962,
      "byteStride": 8
    },
    {
      "buffer": 0,
      "byteOffset": 31768,
      "byteLength": 15696,
      "target": 34963
    }
  ],
  "buffers": [
    {
      "byteLength": 47464,
      "uri": "data:application/octet-stream;base64,"
    }
  ],
  "accessors": [
    {
      "bufferView": 0,
      "componentType": 5126,
      "count": 4,
      "max": [
        46,
        46,
        0
      ],
      "min": [
        -46,
        -46,
        0
      ],
      "type": "VEC3"
    },
    {
      "bufferView": 1,
      "componentType": 5126,
      "count": 4,
      "max": [
        0,
        0,
        1
      ],
      "min": [
        0,
        0,
        1
      ],
      "type": "VEC3"
    },
    {
      "bufferView": 2,
      "componentType": 5126,
      "count": 4,
      "max": [
        1,
        1
      ],
      "min": [
        0,
        0
      ],
      "type": "VEC2"
    },
    {
      "bufferView": 3,
      "componentType": 5125,
      "count": 6,
      "max": [
        3
      ],
      "min": [
        0
      ],
      "type": "SCALAR"
    },
    {
      "bufferView": 4,
      "componentType": 5126,
      "count": 988,
      "max": [
        120,
        120,
        12
      ],
      "min": [
        -120,
        -120,
        0
      ],
      "type": "VEC3"
    },
    {
      "bufferView": 5,
      "componentType": 5126,
      "count": 988,
      "max": [
        1,
        1,
        1
      ],
      "min": [
        -1,
        -1,
        -1
      ],
      "type": "VEC3"
    },
    {
      "bufferView": 6,
      "componentType": 5126,
      "count": 988,
      "max": [
        1,
        1
      ],
      "min": [
        0,
        0
      ],
      "type": "VEC2"
    },
    {
      "bufferView": 7,
      "componentType": 5125,
      "count": 3924,
      "max": [
        987
      ],
      "min": [
        0
      ],
      "type": "SCALAR"
    }
  ],
  "meshes": [
    {
      "primitives": [
        {
          "mode": 4,
          "attributes": {
            "POSITION": 0,
            "NORMAL": 1,
            "TEXCOORD_0": 2
          },
          "extras": {
            "shape": {
              "points": [
                -46,
                46,
                -46,
                46,
                -46,
                46,
                0,
                46,
                46,
                46,
                46,
                46,
                46,
                0,
                46,
                -46,
                46,
                -46,
                46,
                -46,
                0,
                -46,
                -46,
                -46,
                -46,
                -46,
                -46,
                0
              ],
              "shapeHoles": [],
              "isClosed": true,
              "roundness": 0
            },
            "parameters": {
              "width": 92,
              "depth": 0,
              "cornerRadius": [
                0,
                0,
                0,
                0
              ],
              "cornerType": 0,
              "extrudeBevelSize": 0,
              "extrudeBevelSegments": 1,
              "height": 92,
              "type": "RectangleGeometry",
              "subdivisions": 12,
              "shape": {
                "isClosed": true,
                "points": [
                  {
                    "id": "7ac9621f-41fd-4e0b-ae70-cb23dfb9a2c7",
                    "fi": 0,
                    "data": {
                      "position": [
                        -46,
                        46
                      ],
                      "controlNext": {
                        "position": [
                          -46,
                          46
                        ]
                      },
                      "controlPrevious": {
                        "position": [
                          -46,
                          46
                        ]
                      },
                      "areControlsDirectionsMirrored": true,
                      "roundness": 0
                    }
                  },
                  {
                    "id": "eb3e3fd6-01d4-4bda-8811-42c82e0b1c85",
                    "fi": 1,
                    "data": {
                      "position": [
                        46,
                        46
                      ],
                      "controlNext": {
                        "position": [
                          46,
                          46
                        ]
                      },
                      "controlPrevious": {
                        "position": [
                          46,
                          46
                        ]
                      },
                      "areControlsDirectionsMirrored": true,
                      "roundness": 0
                    }
                  },
                  {
                    "id": "f343bc08-f967-4109-a3ce-f770da3c0814",
                    "fi": 2,
                    "data": {
                      "position": [
                        46,
                        -46
                      ],
                      "controlNext": {
                        "position": [
                          46,
                          -46
                        ]
                      },
                      "controlPrevious": {
                        "position": [
                          46,
                          -46
                        ]
                      },
                      "areControlsDirectionsMirrored": true,
                      "roundness": 0
                    }
                  },
                  {
                    "id": "4ebdcec6-0752-4362-8487-ff467507bb9f",
                    "fi": 3,
                    "data": {
                      "position": [
                        -46,
                        -46
                      ],
                      "controlNext": {
                        "position": [
                          -46,
                          -46
                        ]
                      },
                      "controlPrevious": {
                        "position": [
                          -46,
                          -46
                        ]
                      },
                      "areControlsDirectionsMirrored": true,
                      "roundness": 0
                    }
                  }
                ],
                "roundness": 0,
                "shapeHoles": []
              }
            },
            "ui": {
              "enabledIndieCorners": false
            },
            "type": "RectangleGeometry"
          },
          "indices": 3
        }
      ]
    },
    {
      "primitives": [
        {
          "mode": 4,
          "attributes": {
            "POSITION": 4,
            "NORMAL": 5,
            "TEXCOORD_0": 6
          },
          "extras": {
            "shape": {
              "points": [
                -120,
                120,
                -120,
                120,
                -120,
                120,
                120,
                120,
                120,
                120,
                120,
                120,
                120,
                120,
                120,
                -120,
                120,
                -120,
                120,
                -120,
                120,
                -120,
                -120,
                -120,
                -120,
                -120,
                -120,
                120
              ],
              "shapeHoles": [],
              "isClosed": true,
              "roundness": 120
            },
            "parameters": {
              "width": 240,
              "depth": 12,
              "cornerRadius": [
                800,
                800,
                800,
                800
              ],
              "cornerType": 1,
              "extrudeBevelSize": 2,
              "extrudeBevelSegments": 1,
              "height": 240,
              "type": "RectangleGeometry"
            },
            "ui": {
              "enabledIndieCorners": false
            },
            "type": "RectangleGeometry"
          },
          "indices": 7
        }
      ]
    }
  ],
  "extensions": {
    "KHR_lights_punctual": {
      "lights": [
        {
          "name": "Point Light",
          "color": [
            1,
            1,
            1
          ],
          "intensity": 1,
          "type": "point",
          "range": 2000
        },
        {
          "name": "Directional Light",
          "color": [
            1,
            1,
            1
          ],
          "intensity": 4,
          "type": "directional"
        }
      ]
    }
  },
  "cameras": [
    {
      "type": "orthographic",
      "orthographic": {
        "xmag": 14.908770164417893,
        "ymag": 7.4019714370996645,
        "zfar": 100000,
        "znear": 0
      },
      "name": "Camera"
    }
  ],
  "extensionsUsed": [
    "KHR_lights_punctual"
  ]
}