{
  "asset": {
    "version": "2.0",
    "generator": "THREE.GLTFExporter"
  },
  "scenes": [
    {
      "nodes": [
        0
      ]
    }
  ],
  "scene": 0,
  "nodes": [
    {
      "children": [
        5
      ],
      "matrix": [
        0.01,
        0,
        0,
        0,
        0,
        0.01,
        0,
        0,
        0,
        0,
        0.01,
        0,
        0,
        0,
        0,
        1
      ]
    },
    {
      "matrix": [
        1,
        0,
        0,
        0,
        0,
        1,
        0,
        0,
        0,
        0,
        1,
        0,
        0,
        5.065796825895373e-14,
        584.4202025900668,
        1
      ],
      "name": "Camera",
      "camera": 0
    },
    {
      "matrix": [
        0.3864443372829929,
        0.2516457877338228,
        -0.19322311377713647,
        0,
        -0.04061693654288011,
        0.3412420630561585,
        0.36318606645498996,
        0,
        0.3146601955249187,
        -0.26500613562142394,
        0.2841842878049724,
        0,
        -3.055125294745138,
        -6.832814104117488,
        134.81572823843769,
        1
      ],
      "name": "Cube",
      "mesh": 0
    },
    {
      "matrix": [
        0.9331038176569941,
        -1.4467724372690949e-8,
        -0.3596070987535462,
        0,
        -0.08610229191921367,
        0.9709125473598844,
        -0.2234171450569511,
        0,
        0.3491470475318407,
        0.23943438637576686,
        0.905962203306881,
        0,
        290.5133107762151,
        167.07373861610236,
        1110.056426218212,
        1
      ],
      "name": "Personal Camera",
      "camera": 1
    },
    {
      "matrix": [
        1,
        0,
        0,
        0,
        0,
        1,
        0,
        0,
        0,
        0,
        1,
        0,
        0,
        1,
        0,
        1
      ],
      "name": "Default Ambient Light"
    },
    {
      "name": "Scene 1",
      "children": [
        1,
        2,
        3,
        4
      ]
    }
  ],
  "cameras": [
    {
      "type": "perspective",
      "perspective": {
        "aspectRatio": 2.014162077104642,
        "yfov": 0.7853981633974483,
        "zfar": 100000,
        "znear": 70
      },
      "name": "Camera"
    },
    {
      "type": "orthographic",
      "orthographic": {
        "xmag": 14.182825484764548,
        "ymag": 7.041551246537399,
        "zfar": 100000,
        "znear": 0
      },
      "name": "Camera"
    }
  ],
  "bufferViews": [
    {
      "buffer": 0,
      "byteOffset": 0,
      "byteLength": 28512,
      "target": 34962,
      "byteStride": 12
    },
    {
      "buffer": 0,
      "byteOffset": 28512,
      "byteLength": 28512,
      "target": 34962,
      "byteStride": 12
    },
    {
      "buffer": 0,
      "byteOffset": 57024,
      "byteLength": 19008,
      "target": 34962,
      "byteStride": 8
    },
    {
      "buffer": 0,
      "byteOffset": 76032,
      "byteLength": 22152,
      "target": 34963
    }
  ],
  "buffers": [
    {
      "byteLength": 98184,
      "uri": "data:application/octet-stream;base64,"
    }
  ],
  "accessors": [
    {
      "bufferView": 0,
      "componentType": 5126,
      "count": 2376,
      "max": [
        104.06189727783203,
        104.06189727783203,
        104.06189727783203
      ],
      "min": [
        -104.06189727783203,
        -104.06189727783203,
        -104.06189727783203
      ],
      "type": "VEC3"
    },
    {
      "bufferView": 1,
      "componentType": 5126,
      "count": 2376,
      "max": [
        1,
        1,
        1
      ],
      "min": [
        -1,
        -1,
        -1
      ],
      "type": "VEC3"
    },
    {
      "bufferView": 2,
      "componentType": 5126,
      "count": 2376,
      "max": [
        1,
        1
      ],
      "min": [
        0,
        0
      ],
      "type": "VEC2"
    },
    {
      "bufferView": 3,
      "componentType": 5123,
      "count": 11076,
      "max": [
        2375
      ],
      "min": [
        0
      ],
      "type": "SCALAR"
    }
  ],
  "meshes": [
    {
      "primitives": [
        {
          "mode": 4,
          "attributes": {
            "POSITION": 0,
            "NORMAL": 1,
            "TEXCOORD_0": 2
          },
          "extras": {
            "parameters": {
              "width": 208.12378936579256,
              "widthSegments": 1,
              "heightSegments": 1,
              "depthSegments": 1,
              "cornerRadius": 2,
              "cornerSegments": 20,
              "depth": 208.12378936579256,
              "height": 208.12378936579256,
              "type": "CubeGeometry"
            },
            "type": "CubeGeometry"
          },
          "indices": 3
        }
      ]
    }
  ]
}